# xmcd CD database file
#
# Track frame offsets:
#	150
#	14335
#	26390
#	38597
#	52072
#	63720
#	75525
#	88472
#	100607
#	113900
#	126787
#	137877
#	150462
#	162025
#	175890
#	189627
#	200767
#	209997
#	222987
#	234987
#
# Disc length: 3293 seconds
#
# Revision: 0
# Processed by: cddbd v1.4PL0 Copyright (c) Steve Scherf et al.
# Submitted via: CDex 1.50Beta6
#
DISCID=1e0cdb14
DTITLE=Celia Cruz - La Reina del Ritmo
DYEAR=1988
DGENRE=Salsa
TTITLE0=Tu voz
TTITLE1=Burundanga
TTITLE2=Luna sobre Matanzas
TTITLE3=De Cuba a México
TTITLE4=Contestación al marinero
TTITLE5=Cha Cha Guere
TTITLE6=Las muñecas del Cha Cha Cha
TTITLE7=Tuya más que tuya
TTITLE8=Yerbero Moderno
TTITLE9=Ven Bernabé
TTITLE10=Rock and Roll
TTITLE11=Ritmo de mi Cuba
TTITLE12=La Isla del Encanto
TTITLE13=Pa' la Paloma
TTITLE14=Palmeras tropicales
TTITLE15=Mi amor buenas noches
TTITLE16=Mágica Luna
TTITLE17=Melao de caña
TTITLE18=Caramelos
TTITLE19=Juancito Trucupey
EXTD=YEAR: 1988
EXTT0=
EXTT1=
EXTT2=
EXTT3=
EXTT4=
EXTT5=
EXTT6=
EXTT7=
EXTT8=
EXTT9=
EXTT10=
EXTT11=
EXTT12=
EXTT13=
EXTT14=
EXTT15=
EXTT16=
EXTT17=
EXTT18=
EXTT19=
PLAYORDER=
